<?xml version="1.0" encoding="UTF-8"?>
<svg version="1.1" xmlns="http://www.w3.org/2000/svg" width="1600" height="1600">
<path d="M0 0 C528 0 1056 0 1600 0 C1600 528 1600 1056 1600 1600 C1072 1600 544 1600 0 1600 C0 1072 0 544 0 0 Z " fill="#000000" transform="translate(0,0)"/>
<path d="M0 0 C27.06 0 54.12 0 82 0 C84.29125658 26.3494507 84.29125658 26.3494507 84.80006981 38.37335396 C84.90015226 40.7382927 85.00645189 43.10289646 85.11384583 45.46751404 C85.26977897 48.91381219 85.42329587 52.36020458 85.57476807 55.80670166 C85.98776714 65.18556926 86.42046188 74.56353717 86.85546875 83.94140625 C86.92315208 85.40326733 86.92315208 85.40326733 86.99220276 86.89466095 C88.20295099 112.95960655 89.64123185 139.01216154 91.09567165 165.06447029 C91.34861615 169.59761342 91.60043716 174.13081825 91.8515625 178.6640625 C91.90035868 179.54390556 91.94915485 180.42374863 91.9994297 181.3302536 C92.81220937 196.03784014 93.51858653 210.74909214 94.1883316 225.4638195 C94.77822623 238.420094 95.43015993 251.36947532 96.20410156 264.31625366 C97.61967547 288.0991593 98.82100108 311.89198368 100 335.6875 C100.08689842 337.43996202 100.17380232 339.19242377 100.26071167 340.94488525 C100.56142169 347.00971823 100.86207164 353.0745542 101.16235924 359.13940811 C102.32213052 382.56116566 103.53297679 405.98018914 104.75915527 429.39855957 C104.98275992 433.66954009 105.20597256 437.94054105 105.42916584 442.21154308 C106.02803619 453.6707879 106.6282845 465.12995999 107.22952271 476.58908081 C107.44798287 480.75290385 107.66613384 484.9167429 107.88400269 489.08059692 C108.19384237 495.00039658 108.50468135 500.92014307 108.81640625 506.83984375 C108.86646065 507.79086912 108.91651505 508.74189449 108.96808624 509.72173882 C109.48499694 519.52527106 110.01194343 529.32804201 110.57739258 539.12890625 C110.62343282 539.92720384 110.66947306 540.72550142 110.71690845 541.54798985 C110.92951312 545.22276033 111.14452935 548.89736793 111.36354065 552.57176208 C112.0573822 564.39444415 112.49751261 576.21686813 112.82641602 588.05517578 C112.97002893 590.49154562 113.20042229 592.87560611 113.48193359 595.2980957 C113.99912753 599.78995118 114.30329457 604.27056106 114.53515625 608.78515625 C114.5786319 609.59600174 114.62210754 610.40684723 114.66690063 611.24226379 C115.04038026 618.33401622 115.36528672 625.42806407 115.66880798 632.52313232 C115.83338804 636.36698342 116.00394126 640.20884653 116.23535156 644.04931641 C117.39777406 663.78076242 117.39777406 663.78076242 111.9375 669.9375 C110.31249888 671.31659611 108.66741187 672.67249392 107 674 C105.78739081 675.44174342 104.61850958 676.92159055 103.5 678.4375 C98.41319079 685.10017721 93.04359147 691.53196131 87.69921875 697.98828125 C82.22786556 704.60444945 76.77542593 711.22600744 71.5 718 C66.23147528 724.76513096 60.78888294 731.37976384 55.31640625 737.98046875 C53.25844206 740.46474655 51.22139174 742.96230511 49.21484375 745.48828125 C48.02568359 746.97908203 48.02568359 746.97908203 46.8125 748.5 C45.80123047 749.78390625 45.80123047 749.78390625 44.76953125 751.09375 C43 753 43 753 40 754 C39.33355469 753.14019531 38.66710937 752.28039063 37.98046875 751.39453125 C33.19835819 745.25198513 28.36639534 739.17187983 23.3125 733.25 C17.8747057 726.87721325 12.62094626 720.37939909 7.484375 713.76171875 C2.31110187 707.11050146 -2.98937009 700.62197088 -8.51196289 694.25756836 C-12.50931593 689.62840697 -16.36067913 684.89997198 -20.04223633 680.01489258 C-22.13500263 677.2558453 -24.11137579 674.89866098 -26.6875 672.5546875 C-32.04392872 667.48281905 -33.49806407 663.23937622 -33.7109375 656.05126953 C-33.66805519 650.35417619 -33.35636643 644.68496612 -33 639 C-32.87391375 636.66412088 -32.74893228 634.32818189 -32.625 631.9921875 C-32.40443955 628.02495716 -32.17391052 624.05873549 -31.92016602 620.09350586 C-31.07554397 606.87184267 -30.43159829 593.64353951 -29.80899048 580.409729 C-28.67749904 556.36595828 -27.44548378 532.32932273 -26.12909317 508.29497528 C-24.84385481 484.82419321 -23.58693323 461.35290374 -22.4375 437.875 C-22.37739746 436.64931305 -22.31729492 435.4236261 -22.25537109 434.16079712 C-21.59614763 420.67992163 -20.95952563 407.19812057 -20.34802437 393.71500587 C-20.06686804 387.51826791 -19.78382475 381.32161626 -19.5 375.125 C-19.46899578 374.44706516 -19.43799156 373.76913033 -19.40604782 373.07065201 C-18.56220494 354.64612587 -17.56803891 336.24095277 -16.31451416 317.83963013 C-14.90746289 297.08945118 -13.98700616 276.31797579 -13.09335136 255.54050636 C-13.00354299 253.4589684 -12.91249965 251.37748807 -12.82107544 249.29602051 C-12.70915941 246.73641376 -12.59999981 244.17668442 -12.49411011 241.61682129 C-12.07999519 232.16471236 -12.07999519 232.16471236 -11.49780273 227.93139648 C-10.81601344 222.54696639 -10.61579573 217.17016813 -10.38671875 211.75 C-10.27409457 209.233069 -10.1613785 206.71614212 -10.04858398 204.19921875 C-9.98929735 202.85335784 -9.93012575 201.50749186 -9.87106323 200.16162109 C-9.55439499 192.96145118 -9.22473943 185.76187958 -8.890625 178.5625 C-8.85573912 177.81030182 -8.82085323 177.05810364 -8.7849102 176.28311157 C-7.95689088 158.51524921 -6.95106289 140.75806626 -5.9375 123 C-4.63434826 100.15848338 -3.44675904 77.32093982 -2.59545898 54.45703125 C-2.56114777 53.55345886 -2.52683655 52.64988647 -2.4914856 51.71893311 C-2.43033562 50.09277095 -2.37155779 48.46651623 -2.31613159 46.84014893 C-2.08077389 40.52267113 -1.52701058 34.32412691 -1 28 C-0.67 18.76 -0.34 9.52 0 0 Z " fill="#FE0067" transform="translate(758,472)"/>
<path d="M0 0 C38.61 0 77.22 0 117 0 C116.23852987 3.04588053 115.51934711 5.2490247 114.19921875 8.015625 C113.80863281 8.83562988 113.41804687 9.65563477 113.015625 10.50048828 C112.35820313 11.86149658 112.35820313 11.86149658 111.6875 13.25 C111.22472656 14.21276855 110.76195312 15.17553711 110.28515625 16.16748047 C105.11308566 26.86411515 99.80611874 37.49441996 94.5 48.125 C93.83078018 49.46745789 93.83078018 49.46745789 93.14804077 50.83703613 C91.86148779 53.41599181 90.57191627 55.99341333 89.28125 58.5703125 C88.89411331 59.34655975 88.50697662 60.12280701 88.10810852 60.9225769 C87.74307724 61.64953766 87.37804596 62.37649841 87.00195312 63.12548828 C86.68649536 63.75560822 86.3710376 64.38572815 86.04602051 65.03494263 C85.70083374 65.68341156 85.35564697 66.33188049 85 67 C84.43897835 68.33980675 84.43897835 68.33980675 83.86662292 69.7066803 C82 72 82 72 78.52619934 72.60127258 C77.0615218 72.61577687 75.59641549 72.60244749 74.13208008 72.56762695 C72.93173378 72.56872215 72.93173378 72.56872215 71.70713806 72.56983948 C69.06058087 72.56635437 66.41578112 72.52745184 63.76953125 72.48828125 C61.93536847 72.47895635 60.10119323 72.47183872 58.26701355 72.46684265 C53.43830002 72.44774729 48.61033791 72.3986248 43.78192139 72.34332275 C37.98927592 72.28319478 32.19637924 72.2602261 26.40351105 72.23105621 C17.60181801 72.18256112 8.80177383 72.08676447 0 72 C0 48.24 0 24.48 0 0 Z " fill="#FD0067" transform="translate(758,373)"/>
<path d="M0 0 C0.33 0 0.66 0 1 0 C1.04567108 0.876633 1.09134216 1.75326599 1.13839722 2.65646362 C1.57813143 11.09299982 2.01898965 19.52947646 2.46098137 27.9658947 C2.68794396 32.29868505 2.91453437 36.63149406 3.14013672 40.96435547 C4.05683571 58.56543977 4.99307091 76.16434698 6.046875 93.7578125 C6.85785018 107.30451397 7.56289103 120.85431041 8.20492554 134.41012573 C8.5109077 140.86869372 8.82166587 147.32702504 9.13671875 153.78515625 C9.16986742 154.46488054 9.20301609 155.14460484 9.23716927 155.84492683 C9.76399954 166.60396352 10.34072021 177.35982019 10.94197083 188.11494064 C11.08183959 190.61766435 11.22099907 193.12042661 11.35998535 195.62319946 C11.90371897 205.41100556 11.90371897 205.41100556 12.46185303 215.19799805 C13.46012641 232.4744772 14.30668603 249.6857525 14 267 C13.67 267 13.34 267 13 267 C12.94465088 266.12786865 12.88930176 265.2557373 12.83227539 264.35717773 C12.62384729 261.09368385 12.41295514 257.83036796 12.20043945 254.56713867 C12.10929563 253.15997489 12.01910872 251.75274877 11.92993164 250.34545898 C11.80091351 248.312162 11.66835258 246.27912081 11.53515625 244.24609375 C11.456604 243.02591553 11.37805176 241.8057373 11.29711914 240.54858398 C11.10049021 238.20018502 10.83024374 235.85669601 10.48413086 233.52563477 C9.96903594 229.77450734 9.80685404 226.12847459 9.71875 222.34375 C9.70034058 221.63778687 9.68193115 220.93182373 9.66296387 220.20446777 C9.58519386 217.21733989 9.51689627 214.23001377 9.44775391 211.24267578 C9.39555821 209.04710443 9.33850068 206.85169445 9.28125 204.65625 C9.23581055 202.70428711 9.23581055 202.70428711 9.18945312 200.71289062 C9.06007123 197.02682133 9.06007123 197.02682133 8.48852539 193.51538086 C7.95657838 189.6875423 7.8733347 185.95167127 7.90234375 182.09765625 C7.9037587 181.3750914 7.90517365 180.65252655 7.90663147 179.9080658 C7.91217775 177.62616635 7.9247198 175.34436921 7.9375 173.0625 C7.94252196 171.50455872 7.94708364 169.94661588 7.95117188 168.38867188 C7.9621295 164.59240919 7.97935628 160.79622187 8 157 C7.34 157 6.68 157 6 157 C6 142.48 6 127.96 6 113 C5.34 113 4.68 113 4 113 C3.97494385 111.99098633 3.9498877 110.98197266 3.92407227 109.94238281 C3.82977591 106.19258304 3.72960979 102.44295892 3.62768555 98.69335938 C3.58442069 97.07165643 3.54273972 95.44991042 3.50268555 93.828125 C3.44477786 91.49465973 3.38114302 89.16140957 3.31640625 86.828125 C3.29969376 86.10506165 3.28298126 85.38199829 3.26576233 84.63702393 C3.1638633 80.7919222 3.1638633 80.7919222 2.49900818 77.01622009 C1.65066577 73.58853078 1.77948408 70.06518054 1.71875 66.55078125 C1.70034058 65.73755905 1.68193115 64.92433685 1.66296387 64.08647156 C1.58437285 60.61238572 1.51628552 57.13811506 1.44775391 53.66381836 C1.39617972 51.12603727 1.33889983 48.58843039 1.28125 46.05078125 C1.26767456 45.25916092 1.25409912 44.46754059 1.2401123 43.65193176 C1.49114753 40.02534945 1.49114753 40.02534945 0 37 C-0.08858646 34.26105915 -0.11523479 31.5474673 -0.09765625 28.80859375 C-0.0962413 27.98875504 -0.09482635 27.16891632 -0.09336853 26.32423401 C-0.08775289 23.69528618 -0.07519779 21.06642227 -0.0625 18.4375 C-0.05748701 16.65950643 -0.05292376 14.88151154 -0.04882812 13.10351562 C-0.03777839 8.73564455 -0.02050331 4.36783652 0 0 Z " fill="#CF0F5C" transform="translate(847,618)"/>
<path d="M0 0 C38.61 0 77.22 0 117 0 C117 0.33 117 0.66 117 1 C78.72 1 40.44 1 1 1 C1.33 4.3 1.66 7.6 2 11 C2.07625055 13.18275293 2.11825283 15.36719029 2.11352539 17.55126953 C2.11340454 18.74792236 2.11328369 19.9445752 2.11315918 21.17749023 C2.10804321 22.40024658 2.10292725 23.62300293 2.09765625 24.8828125 C2.09664917 26.03257568 2.09564209 27.18233887 2.09460449 28.36694336 C2.08941314 32.6196392 2.07545221 36.87232071 2.0625 41.125 C2.041875 50.65375 2.02125 60.1825 2 70 C28.07 70 54.14 70 81 70 C81 69.34 81 68.68 81 68 C81.66 68 82.32 68 83 68 C82.505 69.98 82.505 69.98 82 72 C54.94 72 27.88 72 0 72 C0 48.24 0 24.48 0 0 Z " fill="#B40D50" transform="translate(758,373)"/>
<path d="M0 0 C0.33 0 0.66 0 1 0 C1.14940287 9.50486836 0.73960678 18.95632491 0.25537109 28.44482422 C0.12947487 30.91229582 0.0076415 33.37993652 -0.11328125 35.84765625 C-0.69680248 47.62383501 -1.35057502 59.39608101 -2.00832748 71.16829681 C-3.23304862 93.09173707 -4.41842714 115.01731094 -5.60449219 136.94287109 C-5.86766375 141.80715617 -6.13135046 146.67141289 -6.39550781 151.53564453 C-7.99657448 181.02061324 -9.56101589 210.50663848 -11 240 C-11.33 240 -11.66 240 -12 240 C-12.05806093 227.23857646 -11.93061571 214.49015456 -11.62768555 201.73217773 C-11.56117716 198.88078614 -11.50222682 196.02929285 -11.44335938 193.17773438 C-11.40149687 191.35676031 -11.35919669 189.53579624 -11.31640625 187.71484375 C-11.29969376 186.86607162 -11.28298126 186.0172995 -11.26576233 185.14280701 C-11.11441998 179.22883995 -11.11441998 179.22883995 -10 177 C-9.8550865 174.28903448 -9.76576775 171.59970907 -9.71875 168.88671875 C-9.70034058 168.08015335 -9.68193115 167.27358795 -9.66296387 166.44258118 C-9.6041401 163.85762921 -9.55139001 161.27260978 -9.5 158.6875 C-9.43215245 155.29543941 -9.35839289 151.90357915 -9.28125 148.51171875 C-9.26767456 147.73446945 -9.25409912 146.95722015 -9.2401123 146.15641785 C-9.15237255 142.30445748 -8.75699764 138.76428905 -8 135 C-7.86334648 132.22977247 -7.76855942 129.4785669 -7.71875 126.70703125 C-7.70034058 125.91979172 -7.68193115 125.13255219 -7.66296387 124.32145691 C-7.58456288 120.96679753 -7.51634497 117.61195229 -7.44775391 114.25708008 C-7.39609471 111.80279436 -7.33884982 109.34868357 -7.28125 106.89453125 C-7.26767456 106.13308304 -7.25409912 105.37163483 -7.2401123 104.58711243 C-7.11288178 99.22576355 -7.11288178 99.22576355 -6 97 C-5.78376921 94.53399294 -5.62163219 92.08825326 -5.5 89.6171875 C-5.4397036 88.4867527 -5.4397036 88.4867527 -5.37818909 87.33348083 C-5.24740017 84.8475411 -5.12361539 82.36130596 -5 79.875 C-4.91016867 78.14477052 -4.8202426 76.41454595 -4.73022461 74.68432617 C-4.18077044 63.89492481 -3.81893437 53.11220316 -3.5625 42.3125 C-3.21326691 28.07700894 -1.8588494 14.11536438 0 0 Z " fill="#35000F" transform="translate(738,852)"/>
<path d="M0 0 C0.33 0 0.66 0 1 0 C1.09323327 9.69546349 0.92390783 19.31302596 0.31661987 28.99481201 C0.07888644 32.80180581 -0.14065657 36.60984163 -0.359375 40.41796875 C-0.40892838 41.27984802 -0.45848175 42.14172729 -0.50953674 43.02972412 C-0.97660032 51.3052436 -1.37518802 59.58386374 -1.765625 67.86328125 C-1.79846273 68.5590307 -1.83130047 69.25478016 -1.86513329 69.97161293 C-2.19770141 77.02794417 -2.52628707 84.08445628 -2.85172081 91.14111996 C-2.94559278 93.17131172 -3.04019952 95.20146786 -3.1350708 97.23161316 C-3.25168708 99.73041427 -3.36691387 102.22928083 -3.48040771 104.72822571 C-3.85953091 112.8294016 -4.3883488 120.91312847 -5 129 C-5.33 129 -5.66 129 -6 129 C-6.02492888 123.91374051 -6.04296724 118.82751748 -6.05493164 113.74121094 C-6.05992544 112.01496765 -6.06672279 110.28872851 -6.07543945 108.5625 C-6.15714621 91.95199612 -6.15714621 91.95199612 -5.25610352 84.59814453 C-4.62758875 78.22192513 -4.61168205 71.77779008 -4.4375 65.375 C-4.39420285 63.87889688 -4.35058544 62.38280299 -4.30664062 60.88671875 C-4.20073818 57.25791139 -4.0991582 53.62899865 -4 50 C-3.34 50 -2.68 50 -2 50 C-2 37.46 -2 24.92 -2 12 C-1.34 12 -0.68 12 0 12 C0 8.04 0 4.08 0 0 Z " fill="#460016" transform="translate(757,484)"/>
<path d="M0 0 C0.33 0 0.66 0 1 0 C1.69637974 5.86198584 2.20705543 11.67440379 2.46484375 17.57055664 C2.50239777 18.37522369 2.53995178 19.17989075 2.5786438 20.00894165 C2.70093198 22.64256442 2.81919044 25.27635202 2.9375 27.91015625 C3.02306584 29.76469746 3.10892726 31.61922505 3.19506836 33.47373962 C3.42072089 38.34509374 3.64313559 43.21658974 3.86462402 48.08813477 C4.2182584 55.8578871 4.57614271 63.62744303 4.93533325 71.39694023 C5.0589986 74.08407398 5.18086201 76.77128473 5.30249023 79.45851135 C5.71700834 88.52559504 6.19669521 97.58271441 6.80467224 106.63902283 C7.07344642 111.26378215 7.1127503 115.8692418 7.0625 120.5 C7.05798828 121.33402344 7.05347656 122.16804687 7.04882812 123.02734375 C7.03738606 125.01826282 7.01947577 127.00914331 7 129 C6.67 129 6.34 129 6 129 C5.94465088 128.0713916 5.88930176 127.1427832 5.83227539 126.18603516 C5.62513866 122.74553927 5.41411692 119.3053278 5.20043945 115.86523438 C5.10870618 114.375421 5.01852907 112.88551096 4.92993164 111.39550781 C4.8024197 109.25558678 4.66934148 107.11607414 4.53515625 104.9765625 C4.456604 103.68830566 4.37805176 102.40004883 4.29711914 101.07275391 C4.19422905 98.08924765 4.19422905 98.08924765 3 96 C2.8554194 93.41115018 2.76590853 90.84484434 2.71875 88.25390625 C2.70034058 87.48698959 2.68193115 86.72007294 2.66296387 85.92991638 C2.60414893 83.4741897 2.55136948 81.01839304 2.5 78.5625 C2.43233476 75.33448849 2.35863487 72.10669769 2.28125 68.87890625 C2.26767456 68.13508194 2.25409912 67.39125763 2.2401123 66.62489319 C2.16489948 63.50236012 1.99450097 60.9835029 1 58 C0.8448699 55.02153895 0.74198915 52.06258932 0.68359375 49.08203125 C0.66281265 48.19198898 0.64203156 47.30194672 0.62062073 46.38493347 C0.57733867 44.49275491 0.53629895 42.60052394 0.49731445 40.70825195 C0.43865713 37.86851934 0.3733108 35.02900767 0.30664062 32.18945312 C0.06349804 21.45765469 -0.06040897 10.7345777 0 0 Z " fill="#C90F59" transform="translate(840,486)"/>
<path d="M0 0 C0.33 0 0.66 0 1 0 C1.3174805 5.27054607 1.62958063 10.54138808 1.9375 15.8125 C1.98357391 16.60066101 2.02964783 17.38882202 2.07711792 18.2008667 C2.75763482 29.92470275 3.31390071 41.6427412 3.65795898 53.38208008 C3.68962158 54.39294678 3.72128418 55.40381348 3.75390625 56.4453125 C3.77783447 57.30656738 3.8017627 58.16782227 3.82641602 59.05517578 C3.97002893 61.49154562 4.20042229 63.87560611 4.48193359 66.2980957 C4.99912513 70.78993029 5.30358184 75.2705579 5.53515625 79.78515625 C5.57822403 80.59645493 5.62129181 81.4077536 5.66566467 82.24363708 C5.80187531 84.84974046 5.93283756 87.4560631 6.0625 90.0625 C6.10735535 90.9484082 6.15221069 91.83431641 6.19842529 92.74707031 C6.90411642 106.8443108 7.25823264 120.88328258 7 135 C6.67 135 6.34 135 6 135 C5.90912109 133.35451172 5.90912109 133.35451172 5.81640625 131.67578125 C5.73195502 130.22134346 5.64730934 128.76691695 5.5625 127.3125 C5.52318359 126.59126953 5.48386719 125.87003906 5.44335938 125.12695312 C5.38051758 124.06831055 5.38051758 124.06831055 5.31640625 122.98828125 C5.27974854 122.34415283 5.24309082 121.70002441 5.20532227 121.03637695 C5.03389342 118.94450319 5.03389342 118.94450319 4.49780273 116.71044922 C3.87778225 113.3345456 3.79916716 110.07616258 3.71875 106.64453125 C3.70034058 105.94285324 3.68193115 105.24117523 3.66296387 104.51823425 C3.60454644 102.28307008 3.55166439 100.04782977 3.5 97.8125 C3.23228521 85.72002988 3.23228521 85.72002988 2.23632812 73.6706543 C1.60795532 66.56965209 1.614943 59.39850522 1.44775391 52.2734375 C1.39615826 50.13008814 1.3389557 47.98694219 1.28125 45.84375 C1.25095703 44.57724609 1.22066406 43.31074219 1.18945312 42.00585938 C1.20104549 39.07703624 1.20104549 39.07703624 0 37 C-0.08683445 34.22839374 -0.1155579 31.48225235 -0.09765625 28.7109375 C-0.0962413 27.89251373 -0.09482635 27.07408997 -0.09336853 26.23086548 C-0.0877629 23.61220675 -0.07520948 20.99363296 -0.0625 18.375 C-0.05748572 16.60156373 -0.05292269 14.82812613 -0.04882812 13.0546875 C-0.03779164 8.70309218 -0.02052325 4.3515605 0 0 Z " fill="#CD0F5B" transform="translate(867,1001)"/>
<path d="M0 0 C0.33 0 0.66 0 1 0 C1.0297784 3.68748211 1.04705238 7.37493223 1.0625 11.0625 C1.07087891 12.08150391 1.07925781 13.10050781 1.08789062 14.15039062 C1.10972501 21.15922895 0.75847357 28.08182312 0.25170898 35.07104492 C-0.00926612 39.14463602 -0.1687541 43.20928064 -0.28125 47.2890625 C-0.30026871 47.97562424 -0.31928741 48.66218597 -0.33888245 49.36955261 C-0.41385161 52.1712452 -0.48415619 54.97303458 -0.55224609 57.77490234 C-0.60410533 59.86306925 -0.66117389 61.95104656 -0.71875 64.0390625 C-0.76418945 65.86751709 -0.76418945 65.86751709 -0.81054688 67.73291016 C-1 71 -1 71 -1.5 73.42114258 C-2.19556087 77.00864722 -2.21525639 80.58108652 -2.28125 84.22265625 C-2.29965942 85.00515244 -2.31806885 85.78764862 -2.33703613 86.59385681 C-2.41533428 89.92645273 -2.48340913 93.25923836 -2.55224609 96.59204102 C-2.60410413 99.03150976 -2.66129048 101.47081405 -2.71875 103.91015625 C-2.73232544 104.66128189 -2.74590088 105.41240753 -2.7598877 106.18629456 C-2.84094821 109.6013596 -3.02919488 112.72040603 -4 116 C-4.2198223 118.24707241 -4.40483987 120.49771238 -4.5625 122.75 C-4.64628906 123.92046875 -4.73007812 125.0909375 -4.81640625 126.296875 C-4.87699219 127.18890625 -4.93757812 128.0809375 -5 129 C-5.33 129 -5.66 129 -6 129 C-6.3996035 111.46332645 -5.2568679 93.98923688 -4.2623291 76.49017334 C-4.03702672 72.50732797 -3.81757434 68.52416128 -3.59765625 64.54101562 C-3.20479442 57.4406263 -2.80698405 50.34052521 -2.4070015 43.24053383 C-1.88869974 34.03433344 -1.37801074 24.82771157 -0.8671875 15.62109375 C-0.77915234 14.03540503 -0.69110938 12.44971674 -0.60305786 10.86402893 C-0.40197582 7.24268944 -0.20096423 3.62134603 0 0 Z " fill="#CE105C" transform="translate(736,905)"/>
<path d="M0 0 C0.33 0 0.66 0 1 0 C1.06058594 0.90363281 1.12117187 1.80726563 1.18359375 2.73828125 C1.26738281 3.91777344 1.35117187 5.09726562 1.4375 6.3125 C1.51871094 7.48425781 1.59992187 8.65601563 1.68359375 9.86328125 C1.8867371 13.02590958 1.8867371 13.02590958 3 16 C3.13905927 18.10165862 3.22521438 20.20699141 3.28125 22.3125 C3.31863281 23.55257813 3.35601563 24.79265625 3.39453125 26.0703125 C3.46484375 28.69010417 3.53515625 31.30989583 3.60546875 33.9296875 C3.64285156 35.16976562 3.68023438 36.40984375 3.71875 37.6875 C3.74904297 38.82574219 3.77933594 39.96398437 3.81054688 41.13671875 C3.88355854 44.0721819 3.88355854 44.0721819 5 47 C5.14163526 49.6328461 5.23316554 52.24426674 5.28125 54.87890625 C5.29965942 55.64677963 5.31806885 56.41465302 5.33703613 57.20579529 C5.41567197 60.49049034 5.48353611 63.77538741 5.55224609 67.06030273 C5.60393777 69.45827466 5.6611912 71.85606916 5.71875 74.25390625 C5.73232544 74.99975479 5.74590088 75.74560333 5.7598877 76.51405334 C5.78652355 80.38499186 5.78652355 80.38499186 7 84 C7.08705146 86.98970289 7.11550145 89.95584955 7.09765625 92.9453125 C7.0962413 93.8303244 7.09482635 94.7153363 7.09336853 95.62716675 C7.0877614 98.45981191 7.07520771 101.29237864 7.0625 104.125 C7.05748592 106.04296761 7.05292285 107.96093646 7.04882812 109.87890625 C7.03778966 114.58596782 7.02052025 119.2929706 7 124 C6.67 124 6.34 124 6 124 C5.49378263 114.52270178 4.98940929 105.04530755 4.48720646 95.56779575 C4.25380255 91.16404749 4.01983113 86.76033111 3.78442383 82.35668945 C3.51206081 77.26002163 3.24158698 72.16325631 2.97265625 67.06640625 C2.92872364 66.23516865 2.88479103 65.40393105 2.83952713 64.54750443 C2.24512309 53.25661861 1.70633987 41.96689605 1.33839417 30.66590881 C1.16634919 25.73361011 0.83237801 20.87882454 0.21304321 15.98135376 C-0.12916644 12.79872063 -0.0935438 9.6350111 -0.0625 6.4375 C-0.05347656 5.21933594 -0.04445313 4.00117188 -0.03515625 2.74609375 C-0.02355469 1.83988281 -0.01195312 0.93367188 0 0 Z " fill="#32000D" transform="translate(840,472)"/>
<path d="M0 0 C0.33 0 0.66 0 1 0 C1.9411656 7.54194769 2.36633505 15.06214171 2.71875 22.65234375 C2.81472896 24.63195602 2.91071083 26.61156815 3.00685883 28.59117222 C3.17358662 32.03983661 3.33663407 35.488675 3.5 38.9375 C3.69517564 43.05400821 3.89112456 47.17047264 4.09094238 51.28675842 C4.21469182 53.84103523 4.33615466 56.39542419 4.45495605 58.94993591 C4.70362483 64.08217094 4.9847766 69.18557441 5.53881836 74.29467773 C6.03232182 78.90085643 6.12919 83.4409114 6.09765625 88.0703125 C6.0962413 88.87741669 6.09482635 89.68452087 6.09336853 90.51608276 C6.0878445 93.0524289 6.07530725 95.58868129 6.0625 98.125 C6.05747515 99.86197788 6.05291398 101.59895716 6.04882812 103.3359375 C6.03790014 107.55732688 6.02068978 111.77864764 6 116 C5.67 116 5.34 116 5 116 C4.96685699 115.31128815 4.93371399 114.62257629 4.89956665 113.91299438 C4.51158792 105.85902552 4.12085885 97.80519182 3.72851944 89.75143433 C3.6253441 87.63206831 3.5224246 85.51268997 3.41952515 83.39331055 C2.64316693 67.4227145 1.82630827 51.45759304 0.8125 35.5 C0.06584169 23.65009344 -0.2456066 11.87098573 0 0 Z " fill="#35000E" transform="translate(851,673)"/>
<path d="M0 0 C0.66 0 1.32 0 2 0 C1.71045434 7.83421092 1.40666509 15.66785432 1.0982666 23.50134277 C1.02865919 25.27127346 0.959263 27.04121246 0.89001465 28.81115723 C0.64128016 35.16383087 0.38827736 41.51631712 0.13104248 47.86865234 C0.04395783 50.03266737 -0.04194659 52.19673022 -0.12664795 54.36083984 C-0.24788239 57.45163625 -0.3734701 60.54222892 -0.5 63.6328125 C-0.53541901 64.55909454 -0.57083801 65.48537659 -0.60733032 66.43972778 C-0.82691822 71.67898307 -1.27367831 76.80604336 -2 82 C-2.33 82 -2.66 82 -3 82 C-3.14121111 69.65187271 -2.94069488 57.31560332 -2.62667847 44.97177124 C-2.5838835 43.28188886 -2.54264472 41.59196635 -2.50296021 39.90200806 C-2.44565838 37.49571457 -2.38199519 35.08967398 -2.31640625 32.68359375 C-2.29968872 31.95310822 -2.28297119 31.22262268 -2.26574707 30.47000122 C-2.17529872 27.40092428 -1.97770492 24.93311477 -1 22 C-0.85222064 20.30132812 -0.75252934 18.59822511 -0.68359375 16.89453125 C-0.64169922 15.91162109 -0.59980469 14.92871094 -0.55664062 13.91601562 C-0.51732422 12.89185547 -0.47800781 11.86769531 -0.4375 10.8125 C-0.39431641 9.77673828 -0.35113281 8.74097656 -0.30664062 7.67382812 C-0.20055634 5.1160181 -0.09849854 2.55811155 0 0 Z " fill="#36000F" transform="translate(749,622)"/>
<path d="M0 0 C0.33 0 0.66 0 1 0 C1.06939921 12.09418952 0.89128191 24.17717458 0.62768555 36.26831055 C0.56164079 39.35262545 0.50248396 42.43702996 0.44335938 45.52148438 C0.40146178 47.48959232 0.3591595 49.4576917 0.31640625 51.42578125 C0.29969376 52.34442459 0.28298126 53.26306793 0.26576233 54.20954895 C0.24581711 55.05861313 0.22587189 55.90767731 0.20532227 56.7824707 C0.18977798 57.52696976 0.1742337 58.27146881 0.15821838 59.03852844 C0 61 0 61 -1 64 C-1.21798936 66.13565085 -1.38978389 68.27614925 -1.53515625 70.41796875 C-1.62216797 71.67158203 -1.70917969 72.92519531 -1.79882812 74.21679688 C-1.88583984 75.52712891 -1.97285156 76.83746094 -2.0625 78.1875 C-2.1539375 79.52281112 -2.24573025 80.85809796 -2.33789062 82.19335938 C-2.5620946 85.46201727 -2.78264926 88.7308804 -3 92 C-3.33 92 -3.66 92 -4 92 C-4.07652784 81.59884485 -3.88632497 71.25146087 -3.37890625 60.859375 C-3.31377572 59.47610704 -3.24891695 58.09282625 -3.18431091 56.70953369 C-3.04961194 53.84237154 -2.91241916 50.97534426 -2.77319336 48.10839844 C-2.59656342 44.46920915 -2.42520633 40.82979528 -2.25558567 37.19027328 C-2.12259041 34.34515226 -1.98735613 31.50014106 -1.85142326 28.655159 C-1.75691399 26.67247365 -1.66378135 24.68972283 -1.57069397 22.70697021 C-1.20038602 15.12151666 -0.68865311 7.56332308 0 0 Z " fill="#C20F57" transform="translate(741,804)"/>
<path d="M0 0 C0.33 0 0.66 0 1 0 C1.02471455 4.9296024 1.04286691 9.85916874 1.05493164 14.78881836 C1.05996113 16.46590808 1.06678548 18.14299342 1.07543945 19.82006836 C1.08756559 22.230317 1.09324215 24.64050768 1.09765625 27.05078125 C1.10281754 27.80087967 1.10797882 28.55097809 1.11329651 29.32380676 C1.11363785 32.48951232 1.00887343 34.97337972 0 38 C-0.15346953 40.65606301 -0.25717898 43.29095095 -0.31640625 45.94921875 C-0.33718735 46.72183548 -0.35796844 47.49445221 -0.37937927 48.29048157 C-0.44471038 50.7560648 -0.50368315 53.22175361 -0.5625 55.6875 C-0.60570087 57.36003691 -0.64931566 59.03256319 -0.69335938 60.70507812 C-0.8003749 64.8032775 -0.90168857 68.90158296 -1 73 C-1.66 73 -2.32 73 -3 73 C-3.22246977 56.26571008 -2.61963683 39.69436118 -1.5 23 C-1.35476809 20.74874301 -1.21023416 18.49744088 -1.06640625 16.24609375 C-0.71892992 10.83018566 -0.36304172 5.41488588 0 0 Z " fill="#CF0F5D" transform="translate(752,599)"/>
<path d="M0 0 C0.33 0 0.66 0 1 0 C1.12038347 11.26349785 0.78414127 22.4440306 0.125 33.6875 C0.05880463 34.8553302 0.05880463 34.8553302 -0.00872803 36.04675293 C-0.71026396 48.39593711 -1.64335209 60.70357429 -3 73 C-3.33 73 -3.66 73 -4 73 C-4 65.41 -4 57.82 -4 50 C-3.34 50 -2.68 50 -2 50 C-2 37.46 -2 24.92 -2 12 C-1.34 12 -0.68 12 0 12 C0 8.04 0 4.08 0 0 Z " fill="#2C000A" transform="translate(757,484)"/>
<path d="M0 0 C0.99 0.495 0.99 0.495 2 1 C2.02505615 1.84296631 2.0501123 2.68593262 2.07592773 3.55444336 C2.17088155 6.67241674 2.27012448 9.79021503 2.37231445 12.90795898 C2.41571223 14.25914147 2.4573837 15.61038053 2.49731445 16.96166992 C2.55489952 18.90036701 2.61914298 20.83886276 2.68359375 22.77734375 C2.72025146 23.94515381 2.75690918 25.11296387 2.79467773 26.31616211 C2.70076188 28.91779795 2.70076188 28.91779795 4 30 C4.08874135 33.10251201 4.11518455 36.1826812 4.09765625 39.28515625 C4.0962413 40.21597519 4.09482635 41.14679413 4.09336853 42.1058197 C4.08775172 45.09141191 4.0751964 48.07693029 4.0625 51.0625 C4.05748716 53.08137913 4.05292388 55.10025943 4.04882812 57.11914062 C4.03777683 62.07945572 4.02050095 67.03971532 4 72 C3.67 72 3.34 72 3 72 C2.60628672 63.9413792 2.21494192 55.88264822 1.82654572 47.82376957 C1.64608786 44.08094264 1.46484185 40.33815749 1.28173828 36.59545898 C1.10476816 32.97751687 0.92994196 29.35947673 0.75654602 25.74136162 C0.69032218 24.36717535 0.62335095 22.99302487 0.55558777 21.61891365 C0.20031768 14.40463271 -0.08267148 7.22342031 0 0 Z " fill="#2F000C" transform="translate(871,1063)"/>
<path d="M0 0 C0.33 0 0.66 0 1 0 C1.05534912 0.83772949 1.11069824 1.67545898 1.16772461 2.53857422 C1.37491547 5.64363441 1.58593271 8.7484039 1.79956055 11.85302734 C1.8912688 13.19732428 1.98144665 14.54172653 2.07006836 15.88623047 C2.19764199 17.81765242 2.33115854 19.74867894 2.46484375 21.6796875 C2.543396 22.84226074 2.62194824 24.00483398 2.70288086 25.20263672 C2.82968626 27.95124154 2.82968626 27.95124154 4 30 C4.08705146 32.98970289 4.11550145 35.95584955 4.09765625 38.9453125 C4.0962413 39.8303244 4.09482635 40.7153363 4.09336853 41.62716675 C4.0877614 44.45981191 4.07520771 47.29237864 4.0625 50.125 C4.05748592 52.04296761 4.05292285 53.96093646 4.04882812 55.87890625 C4.03778966 60.58596782 4.02052025 65.2929706 4 70 C3.67 70 3.34 70 3 70 C2.5662714 62.60290522 2.13987295 55.20541242 1.71826172 47.80761719 C1.57439055 45.29775721 1.42892033 42.78798831 1.28173828 40.27832031 C0.4949269 26.84364977 -0.28219431 13.46171383 0 0 Z " fill="#34000D" transform="translate(847,602)"/>
<path d="M0 0 C0.33 0 0.66 0 1 0 C3.38776806 36.46426652 3.38776806 36.46426652 3 54 C2.67 54 2.34 54 2 54 C1.93941406 52.85660156 1.87882813 51.71320312 1.81640625 50.53515625 C1.73201572 49.04425695 1.64736698 47.55337225 1.5625 46.0625 C1.52318359 45.30775391 1.48386719 44.55300781 1.44335938 43.77539062 C1.55961976 40.08055813 1.55961976 40.08055813 0 37 C-0.08858646 34.26105915 -0.11523479 31.5474673 -0.09765625 28.80859375 C-0.0962413 27.98875504 -0.09482635 27.16891632 -0.09336853 26.32423401 C-0.08775289 23.69528618 -0.07519779 21.06642227 -0.0625 18.4375 C-0.05748701 16.65950643 -0.05292376 14.88151154 -0.04882812 13.10351562 C-0.03777839 8.73564455 -0.02050331 4.36783652 0 0 Z " fill="#C70F59" transform="translate(847,618)"/>
<path d="M0 0 C0.33 0 0.66 0 1 0 C1 14.85 1 29.7 1 45 C0.01 44.67 -0.98 44.34 -2 44 C-2 35.09 -2 26.18 -2 17 C-1.34 17 -0.68 17 0 17 C0 11.39 0 5.78 0 0 Z " fill="#38000F" transform="translate(725,1092)"/>
<path d="M0 0 C0.33 0.66 0.66 1.32 1 2 C-1.56768754 7.34079008 -4.58093243 11.06126586 -9 15 C-9.66 15 -10.32 15 -11 15 C-11 15.66 -11 16.32 -11 17 C-11.66 16.67 -12.32 16.34 -13 16 C-11.20994733 13.70705628 -9.41803862 11.41560683 -7.625 9.125 C-7.11710938 8.47402344 -6.60921875 7.82304688 -6.0859375 7.15234375 C-5.59609375 6.52714844 -5.10625 5.90195313 -4.6015625 5.2578125 C-4.15119629 4.6817627 -3.70083008 4.10571289 -3.23681641 3.51220703 C-2 2 -2 2 0 0 Z " fill="#3A0012" transform="translate(845,1170)"/>
<path d="M0 0 C0.33 0.66 0.66 1.32 1 2 C0.06421005 4.35981813 -0.93347808 6.69631264 -2 9 C-2.66 9 -3.32 9 -4 9 C-4.33 9.99 -4.66 10.98 -5 12 C-5.99 12 -6.98 12 -8 12 C-8 12.66 -8 13.32 -8 14 C-8.66 13.67 -9.32 13.34 -10 13 C-5.05 6.565 -5.05 6.565 0 0 Z " fill="#360112" transform="translate(856,1156)"/>
<path d="M0 0 C1 2 1 2 0.3125 4.4375 C-1.10829685 7.21143671 -2.39746148 8.35172561 -5 10 C-5.66 9.67 -6.32 9.34 -7 9 C-4.69 6.03 -2.38 3.06 0 0 Z " fill="#360011" transform="translate(870,1139)"/>
<path d="M0 0 C3.26008643 3.16952847 6.22237877 6.39937989 9 10 C8.01 10.495 8.01 10.495 7 11 C3.11546098 8.41030732 2.13541865 6.12356704 0 2 C0 1.34 0 0.68 0 0 Z " fill="#3A0013" transform="translate(752,1169)"/>
<path d="M0 0 C0.33 1.32 0.66 2.64 1 4 C0.34 4 -0.32 4 -1 4 C-1 4.66 -1 5.32 -1 6 C-2.32 6.33 -3.64 6.66 -5 7 C-1.125 1.125 -1.125 1.125 0 0 Z " fill="#3C0012" transform="translate(810,1213)"/>
<path d="M0 0 C2.64752004 2.57784846 4.94432065 4.91648098 7 8 C5.68 7.34 4.36 6.68 3 6 C3 5.34 3 4.68 3 4 C2.01 4 1.02 4 0 4 C0 2.68 0 1.36 0 0 Z " fill="#370011" transform="translate(777,1200)"/>
</svg>
